<svg
  version="1.0"
  xmlns="http://www.w3.org/2000/svg"
  xmlns:xlink="http://www.w3.org/1999/xlink"
  viewBox="0 0 340.000000 250.000000"
  preserveAspectRatio="xMidYMid meet"
  color-interpolation-filters="sRGB"
  style="margin: auto"
>
  <g
    data-v-6805eed4=""
    fill="#d6392a"
    class="iconlinesvg-g iconlinesvg"
    transform="translate(87.33122301101685,106.21872901916504)"
  >
    <g class="tp-name">
      <g transform="translate(0, 0)">
        <g data-gra="path-name" fill="#d6392a" transform="scale(1)">
          <path
            d="M4.56 0Q4.14 0 3.89-0.27Q3.64-0.54 3.64-0.95L3.64-0.95L3.64-28.00Q3.64-28.45 3.89-28.72Q4.14-28.99 4.56-28.99L4.56-28.99L14.66-28.99Q19.38-28.99 22.05-26.78Q24.73-24.56 24.73-20.34L24.73-20.34Q24.73-17.19 23.15-15.16Q21.58-13.13 18.76-12.34L18.76-12.34L25.14-1.28Q25.26-1.04 25.26-0.83L25.26-0.83Q25.26-0.50 25.02-0.25Q24.77 0 24.44 0L24.44 0L22.61 0Q21.99 0 21.64-0.29Q21.29-0.58 21.00-1.12L21.00-1.12L14.91-11.72L7.54-11.72L7.54-0.95Q7.54-0.54 7.25-0.27Q6.96 0 6.54 0L6.54 0L4.56 0ZM7.54-15.12L14.50-15.12Q20.75-15.12 20.75-20.38L20.75-20.38Q20.75-25.64 14.50-25.64L14.50-25.64L7.54-25.64L7.54-15.12Z"
            transform="translate(-3.644730786930511, 29.69627243442246)"
          ></path>
        </g>
      </g>
      <g transform="translate(25, 0)">
        <g data-gra="path-name" fill="#d6392a" transform="scale(1)">
          <path
            d="M3.73-25.60Q3.31-25.60 3.04-25.87Q2.77-26.13 2.77-26.55L2.77-26.55L2.77-28.70Q2.77-29.12 3.04-29.41Q3.31-29.70 3.73-29.70L3.73-29.70L6.17-29.70Q6.59-29.70 6.88-29.41Q7.17-29.12 7.17-28.70L7.17-28.70L7.17-26.55Q7.17-26.13 6.88-25.87Q6.59-25.60 6.17-25.60L6.17-25.60L3.73-25.60ZM4.06 0Q3.64 0 3.38-0.27Q3.11-0.54 3.11-0.95L3.11-0.95L3.11-20.58Q3.11-21.00 3.38-21.27Q3.64-21.54 4.06-21.54L4.06-21.54L5.88-21.54Q6.30-21.54 6.56-21.27Q6.83-21.00 6.83-20.58L6.83-20.58L6.83-0.95Q6.83-0.54 6.56-0.27Q6.30 0 5.88 0L5.88 0L4.06 0Z"
            transform="translate(-2.774965485503912, 29.69627243442246)"
          ></path>
        </g>
      </g>
      <g transform="translate(33, 0)">
        <g data-gra="path-name" fill="#d6392a" transform="scale(1)">
          <path
            d="M11.72 0.41Q7.29 0.41 4.80-2.09Q2.32-4.60 2.20-9.11L2.20-9.11L2.15-10.77L2.20-12.43Q2.32-16.94 4.80-19.45Q7.29-21.95 11.72-21.95L11.72-21.95Q14.70-21.95 16.75-20.90Q18.80-19.84 19.82-18.27Q20.83-16.69 20.92-15.12L20.92-15.12Q20.96-14.74 20.65-14.45Q20.34-14.16 19.96-14.16L19.96-14.16L18.14-14.16Q17.73-14.16 17.52-14.35Q17.31-14.54 17.11-15.03L17.11-15.03Q16.36-17.06 15.06-17.91Q13.75-18.76 11.76-18.76L11.76-18.76Q9.15-18.76 7.62-17.15Q6.09-15.53 5.96-12.22L5.96-12.22L5.92-10.77L5.96-9.32Q6.09-6.01 7.62-4.39Q9.15-2.77 11.76-2.77L11.76-2.77Q13.79-2.77 15.08-3.62Q16.36-4.47 17.11-6.50L17.11-6.50Q17.31-7.00 17.52-7.19Q17.73-7.37 18.14-7.37L18.14-7.37L19.96-7.37Q20.34-7.37 20.65-7.08Q20.96-6.79 20.92-6.42L20.92-6.42Q20.83-4.89 19.82-3.31Q18.80-1.74 16.75-0.66Q14.70 0.41 11.72 0.41L11.72 0.41Z"
            transform="translate(-2.1537045559134844, 29.69627243442246)"
          ></path>
        </g>
      </g>
      <g transform="translate(55, 0)">
        <g data-gra="path-name" fill="#d6392a" transform="scale(1)">
          <path
            d="M4.56 0Q4.14 0 3.89-0.27Q3.64-0.54 3.64-0.95L3.64-0.95L3.64-28.00Q3.64-28.45 3.89-28.72Q4.14-28.99 4.56-28.99L4.56-28.99L14.66-28.99Q19.38-28.99 22.05-26.78Q24.73-24.56 24.73-20.34L24.73-20.34Q24.73-17.19 23.15-15.16Q21.58-13.13 18.76-12.34L18.76-12.34L25.14-1.28Q25.26-1.04 25.26-0.83L25.26-0.83Q25.26-0.50 25.02-0.25Q24.77 0 24.44 0L24.44 0L22.61 0Q21.99 0 21.64-0.29Q21.29-0.58 21.00-1.12L21.00-1.12L14.91-11.72L7.54-11.72L7.54-0.95Q7.54-0.54 7.25-0.27Q6.96 0 6.54 0L6.54 0L4.56 0ZM7.54-15.12L14.50-15.12Q20.75-15.12 20.75-20.38L20.75-20.38Q20.75-25.64 14.50-25.64L14.50-25.64L7.54-25.64L7.54-15.12Z"
            transform="translate(-3.644730786930511, 29.69627243442246)"
          ></path>
        </g>
      </g>
      <g transform="translate(80, 5.3491787293858675)">
        <g>
          <g class="imagesvg">
            <g>
              <rect
                fill="#d6392a"
                fill-opacity="0"
                stroke-width="2"
                x="0"
                y="0"
                width="26.83847215830649"
                height="26.867220083796152"
                class="image-rect"
              ></rect>
              <svg
                filter="url(#colors6914181494)"
                x="0"
                y="0"
                width="26.83847215830649"
                height="26.867220083796152"
                filtersec="colorsf3060197777"
                class="image-svg-svg primary"
                style="overflow: visible"
              >
                <svg
                  xmlns="http://www.w3.org/2000/svg"
                  viewBox="1.2649993896484375 1.2510000467300415 97.53199768066406 97.63600158691406"
                >
                  <path
                    fill="#333333"
                    d="M49.98 74.695c-13.504 0-24.627-11.02-24.627-24.626S36.476 25.553 49.98 25.553s24.626 11.02 24.626 24.626S63.586 74.695 49.98 74.695zm0-36.183c-6.376 0-11.558 5.181-11.558 11.557s5.182 11.557 11.557 11.557 11.558-5.181 11.558-11.557-5.182-11.558-11.558-11.558z"
                  ></path>
                  <circle
                    fill="#333333"
                    cx="89.57"
                    cy="90.95"
                    r="10.49"
                    transform="matrix(.69 0 0 .69 15.5 15.5)"
                  ></circle>
                  <path
                    fill="#333333"
                    d="M49.98 98.886c-26.897 0-48.715-21.928-48.715-48.817S23.09 1.251 49.98 1.251 98.797 23.18 98.797 50.07c0 7.562-1.725 14.794-4.968 21.604L82.16 65.946c2.484-4.968 3.67-10.26 3.67-15.767 0-19.768-16.09-35.859-35.859-35.859S14.23 30.41 14.23 50.07s16.091 35.86 35.75 35.86a35.28 35.28 0 0 0 15.228-3.458l5.616 11.772c-6.479 3.022-13.496 4.643-20.845 4.643z"
                  ></path>
                </svg>
              </svg>
              <defs>
                <filter id="colors6914181494">
                  <feColorMatrix
                    type="matrix"
                    values="0 0 0 0 0.99609375  0 0 0 0 0.6015625  0 0 0 0 0.5703125  0 0 0 1 0"
                    class="icon-fecolormatrix"
                  ></feColorMatrix>
                </filter>
                <filter id="colorsf3060197777">
                  <feColorMatrix
                    type="matrix"
                    values="0 0 0 0 0.99609375  0 0 0 0 0.99609375  0 0 0 0 0.99609375  0 0 0 1 0"
                    class="icon-fecolormatrix"
                  ></feColorMatrix>
                </filter>
                <filter id="colorsb9425698042">
                  <feColorMatrix
                    type="matrix"
                    values="0 0 0 0 0  0 0 0 0 0  0 0 0 0 0  0 0 0 1 0"
                    class="icon-fecolormatrix"
                  ></feColorMatrix>
                </filter>
              </defs>
            </g>
          </g>
        </g>
      </g>
      <g transform="translate(110, 0)">
        <g data-gra="path-name" fill="#d6392a" transform="scale(1)">
          <path
            d="M4.10 0Q3.69 0 3.42-0.27Q3.15-0.54 3.15-0.95L3.15-0.95L3.15-28.45Q3.15-28.91 3.42-29.16Q3.69-29.41 4.10-29.41L4.10-29.41L5.92-29.41Q6.34-29.41 6.61-29.14Q6.88-28.87 6.88-28.45L6.88-28.45L6.88-0.95Q6.88-0.54 6.61-0.27Q6.34 0 5.92 0L5.92 0L4.10 0Z"
            transform="translate(-3.147722043258169, 29.69627243442246)"
          ></path>
        </g>
      </g>
      <g transform="translate(117, 0)">
        <g data-gra="path-name" fill="#d6392a" transform="scale(1)">
          <path
            d="M4.10 0Q3.69 0 3.42-0.27Q3.15-0.54 3.15-0.95L3.15-0.95L3.15-28.45Q3.15-28.91 3.42-29.16Q3.69-29.41 4.10-29.41L4.10-29.41L5.92-29.41Q6.34-29.41 6.61-29.14Q6.88-28.87 6.88-28.45L6.88-28.45L6.88-0.95Q6.88-0.54 6.61-0.27Q6.34 0 5.92 0L5.92 0L4.10 0Z"
            transform="translate(-3.147722043258169, 29.69627243442246)"
          ></path>
        </g>
      </g>
      <g transform="translate(124, 0)">
        <g data-gra="path-name" fill="#d6392a" transform="scale(1)">
          <path
            d="M11.14 0.41Q7.21 0.41 5.05-2.13Q2.90-4.68 2.90-8.90L2.90-8.90L2.90-20.58Q2.90-21.00 3.17-21.27Q3.44-21.54 3.85-21.54L3.85-21.54L5.76-21.54Q6.17-21.54 6.44-21.27Q6.71-21.00 6.71-20.58L6.71-20.58L6.71-9.11Q6.71-2.82 12.18-2.82L12.18-2.82Q14.83-2.82 16.38-4.49Q17.93-6.17 17.93-9.11L17.93-9.11L17.93-20.58Q17.93-21.00 18.20-21.27Q18.47-21.54 18.89-21.54L18.89-21.54L20.79-21.54Q21.21-21.54 21.47-21.27Q21.74-21.00 21.74-20.58L21.74-20.58L21.74-0.95Q21.74-0.54 21.47-0.27Q21.21 0 20.79 0L20.79 0L19.01 0Q18.60 0 18.33-0.27Q18.06-0.54 18.06-0.95L18.06-0.95L18.06-2.82Q16.86-1.20 15.24-0.39Q13.63 0.41 11.14 0.41L11.14 0.41Z"
            transform="translate(-2.8992176714219973, 29.69627243442246)"
          ></path>
        </g>
      </g>
      <g transform="translate(146, 0)">
        <g data-gra="path-name" fill="#d6392a" transform="scale(1)">
          <path
            d="M4.10 7.87Q3.69 7.87 3.42 7.62Q3.15 7.37 3.15 6.92L3.15 6.92L3.15-20.58Q3.15-21.04 3.42-21.29Q3.69-21.54 4.10-21.54L4.10-21.54L5.84-21.54Q6.30-21.54 6.54-21.29Q6.79-21.04 6.79-20.58L6.79-20.58L6.79-18.76Q9.19-21.95 13.63-21.95L13.63-21.95Q17.98-21.95 20.15-19.20Q22.32-16.44 22.45-12.18L22.45-12.18Q22.49-11.72 22.49-10.77L22.49-10.77Q22.49-9.82 22.45-9.36L22.45-9.36Q22.32-5.14 20.15-2.36Q17.98 0.41 13.63 0.41L13.63 0.41Q9.19 0.41 6.92-2.73L6.92-2.73L6.92 6.92Q6.92 7.33 6.65 7.60Q6.38 7.87 5.96 7.87L5.96 7.87L4.10 7.87ZM12.84-2.82Q15.82-2.82 17.19-4.68Q18.55-6.54 18.68-9.57L18.68-9.57Q18.72-9.98 18.72-10.77L18.72-10.77Q18.72-18.72 12.84-18.72L12.84-18.72Q9.94-18.72 8.47-16.79Q7.00-14.87 6.92-12.26L6.92-12.26Q6.88-11.80 6.88-10.64L6.88-10.64Q6.88-9.48 6.92-9.03L6.92-9.03Q7.00-6.50 8.51-4.66Q10.02-2.82 12.84-2.82L12.84-2.82Z"
            transform="translate(-3.1477220432581694, 29.69627243442246)"
          ></path>
        </g>
      </g>
    </g>
    <!---->
  </g>
  <defs v-gra="od"></defs>
</svg>
